<svg width="1024" height="1024" viewBox="0 0 1024 1024" fill="none" xmlns="http://www.w3.org/2000/svg">
<g clip-path="url(#clip0_2483_4)">
<path d="M0 0H1024V1024H0V0Z" fill="#0a2444"/>
<path d="M831.605 215.916C836.905 218.816 847.855 228.388 851.095 233.389C851.405 236.216 852.12 243.422 851.77 246.054C850.82 253.154 849.7 256.683 849.98 264.048C862.63 268.372 860.21 273.76 860.33 285.506C860.38 290.898 859.74 296.693 860.435 302.026C861.045 306.701 864.69 311.559 866.56 315.9C879.605 344.71 878.21 376.481 878.165 407.294C898.92 436.118 913.83 460.189 925 494.007C892.52 471.271 861.295 460.874 822.425 454.568C769.575 445.993 717.365 447.733 664.68 456.447C659.52 457.3 654.18 457.971 649.065 459.011C567.325 475.621 487.181 496.906 403.341 500.52C373.491 501.895 343.591 501.775 313.753 500.165C268.546 497.723 223.412 492.065 178.096 492.477C149.324 492.739 120.164 494.298 91.7155 498.797L98.417 495.347C116.178 484.791 135.182 473.071 154.021 464.857C171.422 457.27 190.453 454.631 209.031 451.992C232.466 448.664 255.061 448.783 278.584 449.941C331.175 451.314 381.38 422.663 426.189 397.844L509.5 351.85C526.55 342.589 547.33 331.163 564.895 323.212L564.805 318.789C564.63 307.527 568.07 299.6 580.63 299.679C582.3 295.403 583.45 293.6 586.31 290.225C591.275 293.623 593.545 297.288 596.57 302.316C600.76 292.263 604.495 288.321 615.715 287.214C616.075 282.299 616.425 274.606 617.77 270.061C619.19 268.46 619.51 267.996 621.245 266.817L622.515 267.382C626.245 271.912 626.995 291.207 626.955 297.458C632.235 297.371 633.215 297.468 637.99 299.097C640.585 291.82 642.745 286.156 645.81 279.051C652.49 280.46 657.47 281.963 663.845 284.081C663.96 274.399 664.26 266.215 662.095 256.751C661.625 254.691 661.85 249.735 661.915 247.545C667.835 243.977 673.895 240.655 680.09 237.588C685.115 241.781 690.96 245.907 696.31 249.663C696.385 254.978 695.625 260.367 695.35 265.685C695.105 270.383 695.155 275.1 695.175 279.805C699.585 280.82 705.035 281.395 709.56 281.599C711.955 287.204 715.17 292.42 719.105 297.077C717.92 304.25 718 309.061 717.93 316.336C731.59 307.819 745.475 299.671 759.57 291.898C759.525 283.093 759.2 271.491 759.99 262.944L769.96 255.752C773.985 260.611 777.72 264.954 780.58 270.59C790.63 290.37 790.37 253.285 790.65 247.823C793.03 246.583 795.68 245.55 798.175 244.509C802.8 246.768 806.07 248.497 810.53 251.117L810.545 232.693C817.325 226.884 824.53 221.377 831.605 215.916Z" fill="#FEFEFE"/>
<path d="M696.815 558.635C755.36 550.66 762.65 651.5 708.965 660.465C651.535 669.425 638.935 568.79 696.815 558.635ZM727.36 601.63C725.145 586.265 715.9 575.395 699.155 576.6C664.895 583.305 672.08 647.83 706.815 641.96C724.73 636.96 729.77 618.33 727.36 601.63Z" fill="#FEFEFE"/>
<path d="M469.971 559.815C483.681 559.675 495.622 559.25 507.165 567.855C516.69 574.96 522.34 587.035 523.62 598.7C525.665 617.325 523.56 631.585 512.265 646.455C500.115 659.625 488.911 659.48 472.227 659.46L449.905 659.4L449.877 559.895C456.512 559.68 463.36 559.885 469.971 559.815ZM496.663 582.16C489.193 575.69 476.414 577.08 467.071 577.2L467.015 641.71C479.013 641.855 490.106 643.52 499.251 634.015C509.995 620.435 510.465 594.105 496.663 582.16Z" fill="#FEFEFE"/>
<path d="M186.968 559.895C196.178 559.805 223.833 559.09 230.98 561.145C237.806 563.085 243.589 567.645 247.067 573.83C252.767 584.135 252.526 599.945 246.068 609.9C242.741 615.03 239.373 617.255 234.125 620.055C240.81 633.085 247.32 646.205 253.653 659.41C247.182 659.21 240.816 659.61 234.185 659.305C228.521 647.855 221.821 634.34 216.958 622.575H203.596C203.31 634.51 203.535 647.405 203.519 659.42L186.935 659.36C186.385 626.9 186.892 592.44 186.968 559.895ZM220.922 577.065C215.244 576.76 209.309 577.015 203.602 577.095C203.546 586.99 203.542 596.885 203.59 606.78C211.851 606.78 223.624 608.255 229.615 602.905C237.315 593.55 234.759 577.81 220.922 577.065Z" fill="#FEFEFE"/>
<path d="M124.798 558.67C147.317 556.365 163.099 569.445 168.05 590.98L148.755 591.1C148.242 589.7 147.507 587.8 146.839 586.505C144.575 582.095 140.586 578.825 135.82 577.465C99.2475 566.755 92.515 635.34 124.48 641.795C141.389 645.21 149.018 634.46 152.371 619.65C144.074 619.405 135.093 619.57 126.744 619.57C126.724 615.545 125.453 607.05 127.967 604.285L130.519 604.19C143.483 604.265 156.447 604.25 169.41 604.15C169.322 622.85 168.13 640.92 167.917 659.48L153.488 659.255L153.503 649.38C140.062 663.435 121.933 664.675 105.994 653.605C82.651 637.39 80.7495 596.16 96.9215 574.44C103.989 564.95 113.214 560.34 124.798 558.67Z" fill="#FEFEFE"/>
<path d="M359.217 559.92L376.103 559.89C387.932 582.2 400.82 604.78 412.959 627.015C413.3 604.98 412.991 582.04 412.999 559.935L430.018 559.955L430.048 629.23C430.047 634.385 430.403 654.98 429.782 658.915L428.975 659.43L413.139 659.425C400.423 636.93 388.065 614.24 376.069 591.36C376.816 612.32 376.09 638.09 376.06 659.455L359.314 659.33L359.217 559.92Z" fill="#FEFEFE"/>
<path d="M295.03 559.86C301.482 559.82 307.936 559.835 314.388 559.9C323.606 592.45 335.945 626.595 345.711 659.42L327.21 659.385C325.242 652.915 323.346 646.425 321.52 639.91L314.748 639.79L287.921 639.85C286.082 646.295 283.909 653.02 281.946 659.46L264.077 659.331C273.542 626.066 285.402 592.97 295.03 559.86ZM304.676 583.375C300.413 596.575 296.828 610.79 292.432 623.66C296.495 623.66 300.59 623.695 304.651 623.645L316.946 623.605C315.135 617.56 306.628 586.507 304.676 583.375Z" fill="#FEFEFE"/>
<path d="M626.05 559.925C631.87 559.745 637.61 559.86 643.43 559.935L643.42 622.565C643.415 633.83 643.795 647.82 643.305 658.905L642.48 659.435C637.2 659.275 631.345 659.415 626.02 659.43L626.025 617.58C614.445 617.45 602.66 617.55 591.065 617.54C591.165 631.5 591.15 645.46 591.015 659.415L573.965 659.345V559.895C579.665 559.83 585.37 559.835 591.07 559.92L591.135 599.905C602.66 599.845 614.485 600.1 625.965 599.71L626.05 559.925Z" fill="#FEFEFE"/>
<path d="M829.19 559.935C845.52 559.5 864.345 559.775 880.715 559.955C880.675 565.67 880.665 571.385 880.685 577.1L846.415 577.2L846.42 600.465L877.685 600.5C877.78 605.905 877.65 611.58 877.61 617.01L846.475 617.085L846.4 630.625L846.43 641.745L881.39 641.945L881.365 659.425L829.13 659.38L829.19 559.935Z" fill="#FEFEFE"/>
<path d="M751.45 559.87C772.46 559.735 794.54 559.58 815.495 559.99L815.485 577.155L792.115 577.185C791.82 596.565 792.05 616.505 792.045 635.925L792.005 659.44L774.89 659.38C774.525 632.2 774.81 604.41 774.86 577.205L751.42 577.13L751.45 559.87Z" fill="#FEFEFE"/>
<path d="M898.49 559.9C904.205 559.83 909.925 559.84 915.64 559.93C916.385 586.065 915.695 615.435 915.705 641.835C925.825 641.745 935.94 641.77 946.06 641.905C946.115 647.705 946.1 653.5 946.02 659.3C942.59 659.65 933.99 659.435 930.355 659.43L898.5 659.335L898.49 559.9Z" fill="#FEFEFE"/>
<path d="M740.055 702.61C745.405 702.095 750.325 702.55 755.155 705.075C773.11 714.49 772.87 746.235 755.06 755.645C752.8 756.84 750.455 757.505 748.02 758.2C722.74 760.99 712.29 733.035 723.16 713.95C726.89 707.395 733.1 704.385 740.055 702.61ZM759.09 742.07C765.685 726.21 760.02 707.73 740.27 709.065C717.925 715.95 721.655 754.745 747.575 751.455C752.4 750.005 757.125 746.8 759.09 742.07Z" fill="#FEFEFE"/>
<path d="M581.2 703.365C587.135 703.3 601.285 702.485 606.17 704.7C620.62 711.26 618.295 729.505 603.87 734.975C607.815 741.59 613.01 750.81 616.445 757.59C613.77 757.66 609.35 758.435 607.745 756.33C604.155 749.455 600.335 742.825 596.755 735.84L588.065 735.765L587.99 757.56L581.06 757.52C581.46 739.94 581.15 721.085 581.2 703.365Z" fill="#FEFEFE"/>
<path d="M588.02 709.42C590.805 709.355 593.695 709.205 596.47 709.31C608.015 709.77 612.12 716.645 606.43 726.66C601.35 730.795 594.64 729.73 588.04 729.645L588.02 709.42Z" fill="#0a2444"/>
<path d="M496.742 703.265L504.065 703.4L504.04 757.545L497.232 757.535L497.303 729.915L497.358 717.455C495.234 722.28 483.175 756.335 480.928 757.195C479.776 757.63 477.697 757.285 476.579 756.945C474.748 753.895 472.221 746.555 470.818 742.905L460.954 717.255C460.401 730.23 460.717 744.35 460.576 757.48L454.055 757.49L454.019 703.43L461.847 703.49C467.907 718 473.034 733.225 479.328 747.78C483.713 734.455 491.361 716.685 496.742 703.265Z" fill="#FEFEFE"/>
<path d="M643.13 791.84C644.85 793.925 649.27 810.43 650.385 814.32L673.275 814.41C667.22 819.12 661.1 823.75 654.91 828.285C656.465 834.94 659.725 844.585 661.74 851.45C655.615 847.105 648.96 841.635 642.995 836.94C638.38 840.92 628.895 848.09 624.075 851.43L631.06 828.21C625.065 823.48 618.985 818.86 612.815 814.355C620.275 814.14 628.27 814.31 635.77 814.345C638.125 806.835 640.435 799.225 643.13 791.84Z" fill="#FEFEFE"/>
<path d="M555.975 791.755C557.36 793.7 562.055 810.41 563.285 814.37L586.275 814.355C580.775 818.81 573.435 824.14 567.71 828.36C569.78 836.16 572.61 843.315 574.595 851.345C568.32 846.65 562.125 841.855 556.01 836.96C551.595 840.76 541.665 848.055 536.92 851.335C539.37 843.64 541.77 835.925 544.125 828.2C537.77 823.625 532.02 818.84 525.38 814.455C533.055 814.235 541.18 814.34 548.89 814.315C551.155 806.805 553.375 799.15 555.975 791.755Z" fill="#FEFEFE"/>
<path d="M469.029 791.78C470.688 793.93 474.924 810.485 476.005 814.42L499.293 814.345L480.314 828.325C482.625 834.66 485.778 845.045 487.5 851.415C481.189 846.9 474.948 841.95 468.803 837.18C467.96 837.27 452.257 849.69 449.799 851.42C452.34 844.105 454.733 835.675 457.032 828.21C451.083 823.825 444.903 818.88 438.998 814.355L461.946 814.345C463.912 806.675 466.413 799.24 469.029 791.78Z" fill="#FEFEFE"/>
<path d="M382.091 791.83C383.633 793.47 388.521 810.955 389.503 814.275C396.466 814.605 405.238 814.37 412.285 814.3L393.782 828.295C396.142 835.955 398.433 843.64 400.655 851.34C394.738 847.035 387.783 841.525 382.08 836.97C375.902 841.81 369.664 846.575 363.368 851.26C365.669 843.56 368.05 835.885 370.509 828.235C364.416 823.55 358.268 818.935 352.069 814.39C359.614 814.23 367.572 814.365 375.149 814.375C377.183 806.935 379.752 799.215 382.091 791.83Z" fill="#FEFEFE"/>
<path d="M333.096 703.44C339.145 720.955 345.903 739.9 351.305 757.515L344.239 757.53L340.604 745.175L332.375 745.115C327.856 745.105 323.336 745.14 318.816 745.21L314.668 757.58L307.425 757.535L325.583 703.39L333.096 703.44ZM320.611 739.12L329.93 739.155L338.269 739.005C337.006 734.919 331.102 714.72 329.25 712.85L320.611 739.12Z" fill="#FEFEFE"/>
<path d="M564.635 757.575L557.58 757.565L553.6 745.18H547.625L531.9 745.215L527.685 757.54L520.765 757.5C526.745 739.965 533.445 721.04 538.95 703.425H546.725L564.635 757.575ZM542.58 712.825C540.375 719.61 535.66 732.635 534.09 739.115C536.72 739.145 539.78 739.245 542.375 739.18L551.535 739.05C550.16 734.565 544.525 716.276 542.58 712.825Z" fill="#FEFEFE"/>
<path d="M400.455 703.28L407.41 703.405C407.43 709.075 407.913 756.02 406.862 757.535L400.343 757.57C398.091 753.275 394.202 747.19 391.624 742.88L375.079 715.185L375.022 757.545L368.227 757.565L368.258 703.425L375.303 703.385C383.579 717.475 391.969 731.495 400.47 745.455L400.455 703.28Z" fill="#FEFEFE"/>
<path d="M694.29 703.445L701 703.48L701.01 757.53L694.1 757.52C685.835 743.335 677.385 729.255 668.745 715.295C668.315 728.965 668.565 743.745 668.54 757.51L661.845 757.53L661.865 703.46L669 703.48C677.565 717.555 685.98 731.725 694.235 745.985C694.55 732.105 694.3 717.395 694.29 703.445Z" fill="#FEFEFE"/>
<path d="M271.804 702.62C283.859 701.68 289.413 704.55 292.454 716.535L285.414 716.495C284.402 713.945 283.685 712.115 281.488 710.375C277.666 707.35 270 707.925 267.359 712.26C259.636 724.95 279.36 726.02 286.469 730.545C294.205 735.465 294.954 744.14 290.377 751.71C287.773 756.015 282.366 757.515 277.675 758.45C266.15 758.295 260.36 754.055 258.545 742.755L265.776 742.59C265.896 743.365 266.036 744.14 266.196 744.905C268.991 757.76 290.728 752.15 285.419 739.565C281.742 730.85 262.66 733.67 259.834 722.92C256.808 711.4 261.54 705.965 271.804 702.62Z" fill="#FEFEFE"/>
<path d="M141.231 726.945C158.334 726.635 175.925 727.125 193.081 726.915C196.838 726.87 215.046 726.705 217.742 727.325C218.434 728.94 218.19 730.85 218.136 732.655L165.691 732.645C161.41 732.655 144.773 732.975 141.535 732.225C140.824 730.8 141.147 728.64 141.231 726.945Z" fill="#FEFEFE"/>
<path d="M808.345 726.965L885.29 726.95L885.215 732.375C882.3 732.81 876.54 732.635 873.405 732.64L851.47 732.645L824.735 732.635C820.495 732.63 812.735 732.85 808.83 732.305C808.12 730.795 808.33 728.715 808.345 726.965Z" fill="#FEFEFE"/>
<path d="M634.435 703.445L641.035 703.465L641.015 757.505L634.405 757.52L634.435 703.445Z" fill="#FEFEFE"/>
</g>
<defs>
<clipPath id="clip0_2483_4">
<rect width="1024" height="1024" fill="white"/>
</clipPath>
</defs>
</svg>
