<svg width="85" height="85" viewBox="0 0 85 85" fill="none" xmlns="http://www.w3.org/2000/svg">
<g clip-path="url(#clip0_2217_47)">
<rect width="85" height="85" rx="42.5" fill="#1b1a17"/>
<path d="M0 51.4257C0 51.4257 2.18571 51.2314 2.57429 50.8429C2.96286 50.4543 4.37143 49.3857 4.90571 49.24C5.39143 49.0943 6.50857 49.0943 6.84857 48.9971C7.14 48.8514 7.23714 48.3171 7.43143 48.6571C7.62572 49.0457 8.20857 49.7743 8.20857 49.7743C8.20857 49.7743 8.54857 49.0457 8.54857 48.7543C8.54857 48.5114 8.45143 47.8314 8.30572 47.6371C8.16 47.4429 7.86857 46.9571 8.01429 46.6171C8.16 46.2771 8.54857 46.4229 8.59714 46.2286C8.64572 46.0829 8.59714 45.4514 8.84 45.3543C9.08286 45.2571 10.1514 45.3543 10.3943 45.5486C10.6371 45.7429 10.7829 46.2771 10.88 46.2771C11.0257 46.2771 11.0743 46.7143 11.1229 47.0057C11.1714 47.2971 10.7343 47.3943 10.7343 47.6857V49.3857C10.7343 49.7743 11.7543 49.7257 12.4829 49.6771C13.2114 49.6286 15.3971 49.8714 16.1257 49.7743C16.8057 49.6286 17.5829 49.7743 18.5057 49.4343C19.4286 49.0457 19.9629 49.1914 20.8371 48.9486C21.7114 48.7057 23.6057 48.3171 24.0914 48.1714C24.5771 48.0257 28.22 47.1029 28.9 46.86C29.58 46.6171 32.6886 46.0829 33.1743 45.7914C33.66 45.5 34.5343 45.0143 35.0686 44.8686C35.6514 44.7229 38.3229 44.0914 39.2943 43.6543C40.2657 43.1686 42.6943 42.3429 43.3257 42.1C43.9571 41.8571 44.9286 41.4686 45.2686 41.3714C45.6086 41.2257 45.8029 41.1286 45.9 40.9343C46.0457 40.74 46.3371 40.06 46.6771 39.8657C47.0171 39.6714 47.3571 39.8171 47.5514 39.5257C47.7457 39.2343 47.8429 38.7 48.28 38.9914C48.6686 39.2829 48.7171 39.72 48.96 39.4286C49.2514 39.1371 50.2229 38.8457 50.3686 38.8457C50.5143 38.8457 50.5629 37.68 50.6114 37.5829C50.66 37.4857 50.9029 37.4371 51 37.7286C51.0971 37.9714 51.0486 39.9629 51.0486 39.9629L51.68 40.0114L52.1657 38.9914L53.5257 39.2829L53.9143 39.5257L53.9629 37.8743C53.9629 37.8743 53.6714 37.1943 53.72 36.7571C53.7686 36.32 54.4486 36.4171 54.8857 36.1257C55.3229 35.8343 55.2257 36.32 55.8086 36.5629C56.3914 36.8057 56.44 36.9514 56.3914 37.2429C56.3429 37.5343 56.2457 38.3114 56.2943 38.6514C56.3429 38.9914 57.0714 38.9429 57.46 39.04C57.8 39.1371 58.0429 39.7686 58.2372 40.2057C58.4314 40.6429 58.5286 41.42 58.8686 41.3229C59.2086 41.2257 63.7743 39.4286 64.1629 39.3314C64.5514 39.2343 64.26 38.9914 64.3086 38.8457C64.3571 38.7 64.3086 37.5829 64.5029 37.2914C64.6486 37 65.4257 36.7571 65.4257 36.7571C65.4257 36.7571 66.3971 37.68 66.5429 37.7286C66.6886 37.7771 67.32 37.7771 67.4657 37.5829C67.6114 37.3886 67.8057 36.3686 67.8543 36.1743C67.9029 36.0286 68.68 35.98 69.0686 36.1257C69.4572 36.2714 69.8457 36.5629 69.9429 36.4171C70.04 36.2714 70.38 35.64 70.38 35.4457C70.38 35.2514 70.4286 34.1829 70.5743 34.0857C70.72 33.9886 71.6429 34.0857 71.6429 34.0857C71.6429 34.0857 71.6914 33.4543 72.0314 33.3086C72.3229 33.1629 72.9543 32.5314 73.3429 32.6286C73.7314 32.7743 74.0229 33.1143 74.1686 33.26C74.3143 33.4543 74.12 34.7657 74.12 34.7657C74.12 34.7657 74.5572 35.1057 74.6057 35.4943C74.6543 35.8829 74.6057 36.5143 74.7514 36.6114C74.8971 36.7571 75.3343 36.7571 75.7229 37.9229C76.1114 39.04 76.5 40.06 76.5486 41.0314C76.5972 42.0029 76.5486 42.78 77.18 43.7514C77.8114 44.7229 79.3171 46.2771 80.6286 47.2486C81.8914 48.22 82.96 49.24 83.4943 49.8229C84.0286 50.4057 85.0486 52.0571 85.0486 52.0571V0H0V51.4257Z" fill="#ECE6DA"/>
<path d="M10.8874 63.6316C12.1114 63.6316 12.7234 63.0196 13.1169 62.3201V63.5004H13.6414V60.0033H11.1934V60.4841H13.1606C13.2043 62.189 12.2863 63.1944 10.9311 63.1944C9.35743 63.1944 8.352 61.7956 8.352 59.6973C8.352 57.5553 9.44486 56.2876 10.9311 56.2876C12.1551 56.2876 12.7671 56.9433 13.1169 58.211L13.5977 58.0799C13.248 56.6373 12.3737 55.8067 10.9311 55.8067C9.18257 55.8067 7.82743 57.3367 7.82743 59.6973C7.82743 61.9267 9.00772 63.6316 10.8874 63.6316ZM15.4774 63.5004H16.002V59.9596H18.1003L20.0237 63.5004H20.592L18.6249 59.9159C19.7177 59.741 20.4609 59.1727 20.4609 57.9487C20.4609 56.7247 19.5429 55.9816 17.9254 55.9816H15.4774V63.5004ZM16.002 59.4787V56.4187H17.8817C19.1931 56.4187 19.98 56.8121 19.98 57.9487C19.98 59.129 19.2369 59.5224 17.9254 59.5224H16.002V59.4787ZM21.5537 63.5004H22.0783L22.9526 60.965H26.1L26.9743 63.5004H27.4989L24.8323 55.9379H24.2203L21.5537 63.5004ZM23.0837 60.5279L24.4826 56.5061L25.8814 60.5279H23.0837ZM28.8977 63.5004H29.3786V56.7247L33.9249 63.5004H34.362V55.9379H33.8811V62.495L29.5097 55.9379H28.9414V63.5004H28.8977ZM36.4166 63.5004H38.2089C40.6569 63.5004 41.8809 62.1453 41.8809 59.741C41.8809 57.293 40.6569 55.9816 38.2089 55.9816H36.4166V63.5004ZM36.8974 63.0196V56.4187H38.2963C40.2197 56.4187 41.4 57.4679 41.4 59.741C41.4 62.0141 40.2634 63.0633 38.34 63.0633H36.8974V63.0196ZM45.7714 63.5004H46.296V59.741H50.6237V63.5004H51.1483V55.9379H50.6237V59.2601H46.296V55.9379H45.7714V63.5004ZM55.8694 63.6316C57.7054 63.6316 58.9731 62.0141 58.9731 59.6973C58.9731 57.3804 57.7054 55.763 55.8694 55.763C54.0334 55.763 52.7657 57.3804 52.7657 59.6973C52.7657 62.0141 54.0334 63.6316 55.8694 63.6316ZM55.8694 63.1944C54.3831 63.1944 53.2903 61.883 53.2903 59.741C53.2903 57.599 54.3831 56.2876 55.8694 56.2876C57.3557 56.2876 58.4486 57.599 58.4486 59.741C58.4486 61.883 57.3557 63.1944 55.8694 63.1944ZM61.9457 63.5004H62.4703V56.4187H64.962V55.9379H59.4977V56.4187H61.9894V63.5004H61.9457ZM66.3172 63.5004H70.9072V63.0196H66.8417V59.6973H69.7269V59.2601H66.8417V56.4187H70.6886V55.9379H66.3172V63.5004ZM72.4371 63.5004H76.7212V63.0196H72.9617V55.9379H72.4371V63.5004Z" fill="#ECE6DA"/>
<path d="M27.8897 69.497C28.6329 69.497 29.2012 69.1036 29.2012 68.4479C29.2012 67.8359 28.8952 67.5736 28.0209 67.3113C27.1466 67.0053 26.8843 66.8741 26.8843 66.3933C26.8843 65.9999 27.234 65.6939 27.8023 65.6939C28.3269 65.6939 28.6766 65.9124 28.8514 66.437L29.1137 66.3496C28.9389 65.825 28.5454 65.4316 27.8023 65.4316C27.1029 65.4316 26.622 65.8687 26.622 66.3933C26.622 67.0053 26.9717 67.2239 27.846 67.5299C28.764 67.8359 28.9389 68.0544 28.9389 68.4916C28.9389 68.9724 28.5454 69.2784 27.8897 69.2784C27.3214 69.2784 26.928 68.9724 26.7532 68.4041L26.4909 68.4479C26.6657 69.1036 27.1466 69.497 27.8897 69.497ZM29.6383 69.4096H29.9006L30.3377 68.0981H31.9552L32.3923 69.4096H32.6546L31.2557 65.4753H30.9497L29.6383 69.4096ZM30.4252 67.8796L31.1246 65.825L31.8677 67.8796H30.4252ZM33.4414 69.4096H33.7037V65.9124L36.0643 69.4096H36.2829V65.519H36.0206V68.885L33.7474 65.519H33.4414V69.4096ZM38.4686 69.4096H38.6872V65.9999C38.7746 66.2621 38.8183 66.3933 38.9494 66.6556L40.0423 69.4096H40.3046L41.3974 66.6556C41.4849 66.3933 41.5723 66.1747 41.6597 65.9999V69.4096H41.922V65.519H41.5723L40.1734 69.0599L38.7746 65.519H38.4249V69.4096H38.4686ZM42.7089 69.4096H42.9712L43.4083 68.0981H45.0257L45.4629 69.4096H45.7252L44.3263 65.4753H44.0203L42.7089 69.4096ZM43.4957 67.8796L44.1952 65.825L44.9383 67.8796H43.4957ZM46.512 69.4096H46.7743V67.5736H47.8672L48.8726 69.4096H49.1786L48.1732 67.5299C48.7414 67.4424 49.1349 67.1364 49.1349 66.4807C49.1349 65.825 48.654 65.4753 47.8234 65.4753H46.5557V69.4096H46.512ZM46.7743 67.355V65.7813H47.736C48.4354 65.7813 48.8289 65.9999 48.8289 66.5681C48.8289 67.1801 48.4354 67.3987 47.7797 67.3987H46.7743V67.355ZM50.0529 69.4096H50.3152V65.519H50.0529V69.4096ZM51.408 69.4096H51.6703V65.9124L54.0309 69.4096H54.2494V65.519H53.9872V68.885L51.714 65.519H51.408V69.4096ZM56.6974 69.497C57.6154 69.497 58.3149 68.6664 58.3149 67.4861C58.3149 66.3059 57.6592 65.4753 56.6974 65.4753C55.7357 65.4753 55.08 66.3059 55.08 67.4861C55.08 68.6664 55.7357 69.497 56.6974 69.497ZM56.6974 69.2784C55.9106 69.2784 55.3423 68.6227 55.3423 67.4861C55.3423 66.3496 55.9106 65.6939 56.6974 65.6939C57.4406 65.6939 58.0089 66.3496 58.0089 67.4861C58.0526 68.579 57.4843 69.2784 56.6974 69.2784Z" fill="#ECE6DA"/>
<path d="M61.9766 66.59L62.2826 67.1583L62.9383 67.2457L62.4574 67.6829L62.5449 68.3386L61.9766 68.0326L61.4083 68.3386L61.4957 67.6829L61.0149 67.2457L61.6706 67.1583L61.9766 66.59Z" fill="#ECE6DA"/>
<path d="M66.6 66.59L66.906 67.1583L67.5617 67.2457L67.0809 67.6829L67.1683 68.3386L66.6 68.0326L66.0317 68.3386L66.1192 67.6829L65.6383 67.2457L66.294 67.1583L66.6 66.59Z" fill="#ECE6DA"/>
<path d="M71.2234 66.59L71.5294 67.1583L72.1414 67.2457L71.7043 67.6829L71.7917 68.3386L71.2234 68.0326L70.6552 68.3386L70.7426 67.6829L70.2617 67.2457L70.9174 67.1583L71.2234 66.59Z" fill="#ECE6DA"/>
<path d="M75.8032 66.59L76.1092 67.1583L76.7212 67.2457L76.284 67.6829L76.3714 68.3386L75.8032 68.0326L75.2349 68.3386L75.3223 67.6829L74.8414 67.2457L75.4972 67.1583L75.8032 66.59Z" fill="#ECE6DA"/>
<path fill-rule="evenodd" clip-rule="evenodd" d="M19.8024 19.336C19.7962 19.3379 19.7885 19.3393 19.7788 19.3401L19.7772 19.3375V19.3043C19.7772 19.3043 19.7899 19.3171 19.8024 19.336ZM19.9432 19.499H20.02C20.02 19.499 19.9941 19.499 19.9423 19.4966C19.9369 19.4814 19.9304 19.4661 19.9227 19.4507C19.9227 19.4265 19.9105 19.402 19.8983 19.3775C19.8861 19.353 19.8739 19.3285 19.8739 19.3043C19.8255 19.2558 19.7768 19.2076 19.7284 19.2076H19.3989L19.3885 19.2075L19.3887 19.2076H19.3397L19.3407 19.2222C18.9629 19.198 18.2203 19.1601 16.7655 19.1099C16.7472 19.1083 15.6357 19.0132 14.1425 19.0132C14.1181 19.0137 12.9273 19.0366 11.3108 19.0685C9.11355 19.0228 5.81529 18.9766 5.30286 19.0132H4.96286C4.33143 19.0132 2.92286 19.0132 2 19.0618C3.26286 19.0132 5.35143 19.0132 5.35143 19.0132C5.74 19.0132 7.73143 19.0132 9.62571 19.0618H9.67428C10.1239 19.0618 10.5677 19.0675 10.9824 19.075L10.8475 19.0777C10.2992 19.0645 9.84844 19.0622 9.64148 19.0621C9.76586 19.0626 9.95462 19.069 10.1891 19.0769C10.2705 19.0796 10.3574 19.0826 10.4491 19.0855L9.94867 19.0952C9.70472 19.0999 9.45651 19.1047 9.20593 19.1099H9.18835C8.45941 19.1099 7.10563 19.1472 5.79675 19.188C4.04833 19.2313 2.64849 19.2718 2.38855 19.3043C2.39445 19.304 4.05588 19.2423 5.79675 19.188C6.86327 19.1616 8.05949 19.1338 9.20593 19.1099H9.67468C9.67468 19.1099 5.95738 19.2197 3.89474 19.3361C3.58503 19.3394 3.33244 19.3449 3.16571 19.3532H3.60376C3.06769 19.3864 2.68637 19.4197 2.58289 19.4507L2.58313 19.4507C2.60352 19.4498 3.76058 19.3954 5.13148 19.3532H8.60571H9.14C8.83345 19.3532 8.31844 19.3496 7.71239 19.3453L7.71237 19.3453C7.13037 19.3411 6.46442 19.3364 5.81849 19.3338C6.49121 19.3164 7.17807 19.3043 7.78015 19.3043H9.09167C9.22111 19.3043 9.35051 19.326 9.4368 19.3404C9.47967 19.3476 9.51189 19.353 9.5282 19.3531C9.47659 19.3552 3.64807 19.5967 2.92273 19.7418C2.92273 19.7418 3.79711 19.6929 4.23425 19.6929H4.62292L5.10828 19.6451L5.1057 19.6454L5.10569 19.6454C5.05212 19.6517 4.26961 19.7437 3.89441 19.7906H5.49695C5.49695 19.7906 6.71139 19.7415 8.84851 19.6929C11.2933 19.645 14.9682 19.7398 19.453 20.1158L19.4852 20.3736C19.4876 20.4079 19.6796 23.248 19.6796 24.648C19.6795 25.4458 19.5486 25.8179 19.3403 26.4099L19.3403 26.4101C19.2951 26.5386 19.2462 26.6776 19.1942 26.8336C19.0485 27.1735 18.8052 27.6101 18.5624 27.9986C18.3196 28.4357 18.0768 28.873 18.0282 29.3101C17.9803 30.0282 17.9803 30.5579 17.9803 30.9915V31.0103C17.9803 31.3993 17.9898 31.7499 18.0003 32.139V32.1391C18.0135 32.6244 18.0282 33.1697 18.0282 33.9244V48.9332C18.0282 49.1274 18.0773 49.2735 18.1259 49.3707C18.1744 49.4192 18.2232 49.4677 18.3202 49.5162C18.4172 49.5161 18.466 49.4677 18.5145 49.3707C18.5631 49.2735 18.6112 49.1274 18.6112 48.9332V29.4556L18.66 29.4078V29.3101C18.6602 29.2128 18.7576 28.9697 18.9032 28.7271C19.0975 28.3871 19.389 27.9019 19.6317 27.5621C19.7231 27.4402 19.7954 27.3183 19.8606 27.2084L19.8606 27.2083L19.8606 27.2083C19.8993 27.1431 19.9354 27.0821 19.9716 27.0279C20.0673 26.8843 20.1159 26.7871 20.1638 26.6913L20.1638 26.6912L20.1659 26.6871C20.3115 26.1043 20.3602 25.4729 20.3602 24.8902V24.356L20.2137 24.3843C20.2129 22.8364 20.1166 21.2404 19.9716 19.6929C19.9716 19.6696 19.971 19.6354 19.9657 19.5953C19.9667 19.5953 19.9676 19.5955 19.9686 19.5958C19.9696 19.596 19.9706 19.5962 19.9716 19.5962H20.0682C20.0649 19.5959 20.0288 19.5924 19.9647 19.5865C19.9606 19.5592 19.9539 19.5295 19.9432 19.499ZM19.8593 19.5774L19.8605 19.5752L19.8622 19.5777L19.8593 19.5774ZM19.057 27.5169C19.0294 27.5621 19.0012 27.6076 18.9729 27.6535L18.9728 27.6536C18.9116 27.7527 18.8492 27.8538 18.7884 27.9573L18.8233 27.9009L18.8234 27.9009L18.8235 27.9007C18.904 27.771 18.9837 27.6426 19.057 27.5169ZM20.1171 24.4048V24.4047C20.1171 22.8504 20.02 21.2475 19.8743 19.7418C19.8743 19.707 19.868 19.6473 19.8556 19.5849L19.8568 19.5824L19.8661 19.5836C19.8674 19.5853 19.8684 19.5872 19.8694 19.5892C19.8706 19.5917 19.8719 19.5943 19.8739 19.5962C20.0196 21.1505 20.1171 22.7051 20.1171 24.2593L20.203 24.3873L20.1171 24.4048ZM3.7489 19.8873C3.75564 19.884 3.84966 19.8394 3.94324 19.8394L3.93095 19.8394H3.93095C3.73484 19.8394 3.68212 19.8394 3.68166 19.8443C3.68149 19.8461 3.68839 19.8486 3.69783 19.8519C3.71763 19.859 3.7486 19.87 3.7489 19.8873ZM9.96568 19.7904H10.8885C10.8885 19.7904 4.96283 19.7904 4.47711 19.839C4.86568 19.7904 8.26558 19.7904 9.96561 19.7904H9.96568ZM9.23712 43.8332V47.0875C9.23712 47.1361 9.23712 47.7189 9.28569 47.7189C9.36896 47.7189 9.34517 47.2907 9.33667 47.1378C9.33526 47.1123 9.33426 47.0945 9.33426 47.0875V43.8332C9.33426 43.7847 9.33426 43.2018 9.28569 43.2018C9.23712 43.2504 9.23712 43.7847 9.23712 43.8332ZM14.3853 34.3621C14.3853 31.6908 12.2001 29.5048 9.52881 29.5047C6.85738 29.5047 4.67139 31.6907 4.67139 34.3621C4.7201 37.0334 6.85747 39.2185 9.52881 39.2185C12.2 39.2184 14.3851 37.0333 14.3853 34.3621ZM9.68896 34.1052L12.9829 32.1658C13.069 32.1154 13.1803 32.1442 13.231 32.2302C13.2812 32.3163 13.2524 32.4276 13.1665 32.4783L9.89014 34.407C9.89083 34.47 9.8731 34.534 9.83447 34.5896C9.73547 34.7315 9.53994 34.7666 9.39795 34.6677L6.67822 32.7732C6.53627 32.6744 6.50147 32.4797 6.6001 32.3377C6.69902 32.1956 6.89357 32.1607 7.03564 32.2595L9.68896 34.1052Z" fill="#1b1a17"/>
</g>
<defs>
<clipPath id="clip0_2217_47">
<rect width="85" height="85" rx="42.5" fill="#1b1a17"/>
</clipPath>
</defs>
</svg>
